<svg width="156" height="150" viewBox="0 0 156 150" fill="none" xmlns="http://www.w3.org/2000/svg">
<g id="Not Found illustration">
<path id="Vector" d="M77.8472 149C116.136 149 147.175 117.961 147.175 79.6724C147.175 41.3838 116.136 10.3447 77.8472 10.3447C39.5586 10.3447 8.51953 41.3838 8.51953 79.6724C8.51953 117.961 39.5586 149 77.8472 149Z" fill="url(#paint0_linear_2895_2872)"/>
<path id="Vector_2" d="M115.246 26.4768H38.4451C33.658 26.4768 29.7773 30.3575 29.7773 35.1446H123.913C123.913 30.3575 120.033 26.4768 115.246 26.4768Z" fill="url(#paint1_linear_2895_2872)"/>
<path id="Vector_3" d="M29.7773 34.908H123.913V106.603C123.913 109.791 122.647 112.848 120.393 115.102C118.139 117.356 115.082 118.622 111.894 118.622H41.7963C38.6087 118.622 35.5516 117.356 33.2976 115.102C31.0436 112.848 29.7773 109.791 29.7773 106.603V34.908Z" fill="url(#paint2_linear_2895_2872)"/>
<path id="Vector_4" d="M107.735 43.9636H45.9923C44.7064 43.9636 43.6641 45.0049 43.6641 46.2893C43.6641 47.5737 44.7064 48.615 45.9923 48.615H107.735C109.021 48.615 110.063 47.5737 110.063 46.2893C110.063 45.0049 109.021 43.9636 107.735 43.9636Z" fill="url(#paint3_linear_2895_2872)"/>
<path id="Vector_5" d="M107.735 63.7253H45.9923C44.7064 63.7253 43.6641 64.7666 43.6641 66.051C43.6641 67.3355 44.7064 68.3767 45.9923 68.3767H107.735C109.021 68.3767 110.063 67.3355 110.063 66.051C110.063 64.7666 109.021 63.7253 107.735 63.7253Z" fill="url(#paint4_linear_2895_2872)"/>
<path id="Vector_6" d="M107.735 83.4871H45.9923C44.7064 83.4871 43.6641 84.5283 43.6641 85.8127C43.6641 87.0972 44.7064 88.1384 45.9923 88.1384H107.735C109.021 88.1384 110.063 87.0972 110.063 85.8127C110.063 84.5283 109.021 83.4871 107.735 83.4871Z" fill="url(#paint5_linear_2895_2872)"/>
<path id="Vector_7" d="M107.735 103.25H45.9923C44.7064 103.25 43.6641 104.291 43.6641 105.575C43.6641 106.86 44.7064 107.901 45.9923 107.901H107.735C109.021 107.901 110.063 106.86 110.063 105.575C110.063 104.291 109.021 103.25 107.735 103.25Z" fill="url(#paint6_linear_2895_2872)"/>
<g id="Vector_8" filter="url(#filter0_d_2895_2872)">
<path d="M45.5735 79.2485H12.6965C10.0552 79.2485 7.91406 81.3897 7.91406 84.0309V131.023C7.91406 133.665 10.0552 135.806 12.6965 135.806H45.5735C48.2147 135.806 50.3559 133.665 50.3559 131.023V84.0309C50.3559 81.3897 48.2147 79.2485 45.5735 79.2485Z" fill="url(#paint7_linear_2895_2872)"/>
</g>
<g id="Vector_9" filter="url(#filter1_d_2895_2872)">
<path d="M139.163 5.8457H102.849C101.157 5.8457 99.7852 7.21748 99.7852 8.90966V25.9781C99.7852 27.6703 101.157 29.042 102.849 29.042H139.163C140.855 29.042 142.227 27.6703 142.227 25.9781V8.90966C142.227 7.21748 140.855 5.8457 139.163 5.8457Z" fill="url(#paint8_linear_2895_2872)"/>
</g>
<path id="Vector_10" d="M41.9054 102.757H16.3658C15.5058 102.757 14.8086 103.454 14.8086 104.314V104.319C14.8086 105.179 15.5058 105.876 16.3658 105.876H41.9054C42.7654 105.876 43.4626 105.179 43.4626 104.319V104.314C43.4626 103.454 42.7654 102.757 41.9054 102.757Z" fill="url(#paint9_linear_2895_2872)"/>
<path id="Vector_11" d="M41.9187 124.707H16.5985C15.7459 124.707 15.0547 125.382 15.0547 126.216V126.221C15.0547 127.054 15.7459 127.729 16.5985 127.729H41.9187C42.7713 127.729 43.4624 127.054 43.4624 126.221V126.216C43.4624 125.382 42.7713 124.707 41.9187 124.707Z" fill="url(#paint10_linear_2895_2872)"/>
<path id="Vector_12" d="M41.9187 113.223H16.5985C15.7459 113.223 15.0547 113.898 15.0547 114.732V114.736C15.0547 115.57 15.7459 116.245 16.5985 116.245H41.9187C42.7713 116.245 43.4624 115.57 43.4624 114.736V114.732C43.4624 113.898 42.7713 113.223 41.9187 113.223Z" fill="url(#paint11_linear_2895_2872)"/>
<path id="Vector_13" d="M25.7028 86.5056H18.2395C16.5863 86.5056 15.2461 87.8458 15.2461 89.499V91.5702C15.2461 93.2234 16.5863 94.5636 18.2395 94.5636H25.7028C27.3561 94.5636 28.6962 93.2234 28.6962 91.5702V89.499C28.6962 87.8458 27.3561 86.5056 25.7028 86.5056Z" fill="url(#paint12_linear_2895_2872)"/>
<g id="Group 24">
<g id="Group 23">
<path id="Vector_14" d="M108.749 20.963C110.695 20.963 112.272 19.386 112.272 17.4405C112.272 15.4951 110.695 13.918 108.749 13.918C106.804 13.918 105.227 15.4951 105.227 17.4405C105.227 19.386 106.804 20.963 108.749 20.963Z" fill="#81D5E7"/>
<path id="Vector_15" d="M121.339 20.963C123.284 20.963 124.861 19.386 124.861 17.4405C124.861 15.4951 123.284 13.918 121.339 13.918C119.393 13.918 117.816 15.4951 117.816 17.4405C117.816 19.386 119.393 20.963 121.339 20.963Z" fill="#81D5E7"/>
<path id="Vector_16" d="M133.925 20.963C135.87 20.963 137.447 19.386 137.447 17.4405C137.447 15.4951 135.87 13.918 133.925 13.918C131.979 13.918 130.402 15.4951 130.402 17.4405C130.402 19.386 131.979 20.963 133.925 20.963Z" fill="#81D5E7"/>
</g>
</g>
<g id="Vector_17" filter="url(#filter2_b_2895_2872)">
<path d="M96.5455 120.243C113.965 120.243 128.087 106.122 128.087 88.7017C128.087 71.2818 113.965 57.1602 96.5455 57.1602C79.1256 57.1602 65.0039 71.2818 65.0039 88.7017C65.0039 106.122 79.1256 120.243 96.5455 120.243Z" fill="url(#paint13_linear_2895_2872)" fill-opacity="0.2"/>
</g>
<path id="Vector_18" d="M104.124 88.7012L113.144 79.6606C113.99 78.7662 114.453 77.5775 114.435 76.3472C114.418 75.1168 113.921 73.9417 113.051 73.0717C112.181 72.2016 111.006 71.7051 109.776 71.6876C108.545 71.6702 107.357 72.1332 106.462 72.9783L97.4216 82.019L88.401 72.9783C87.967 72.5189 87.4452 72.1513 86.8665 71.897C86.2879 71.6428 85.6641 71.5072 85.0322 71.4983C84.4002 71.4893 83.7729 71.6072 83.1873 71.8449C82.6017 72.0826 82.0697 72.4354 81.6228 72.8823C81.1759 73.3292 80.8231 73.8612 80.5854 74.4468C80.3477 75.0324 80.2298 75.6598 80.2388 76.2917C80.2477 76.9237 80.3833 77.5474 80.6375 78.1261C80.8917 78.7047 81.2594 79.2265 81.7188 79.6606L90.7544 88.7012L81.7188 97.7419C81.2594 98.176 80.8917 98.6978 80.6375 99.2764C80.3833 99.8551 80.2477 100.479 80.2388 101.111C80.2298 101.743 80.3477 102.37 80.5854 102.956C80.8231 103.541 81.1759 104.073 81.6228 104.52C82.0697 104.967 82.6017 105.32 83.1873 105.558C83.7729 105.795 84.4002 105.913 85.0322 105.904C85.6641 105.895 86.2879 105.76 86.8665 105.505C87.4452 105.251 87.967 104.884 88.401 104.424L97.4417 95.3835L106.482 104.424C107.385 105.219 108.557 105.64 109.76 105.601C110.962 105.562 112.105 105.066 112.954 104.214C113.804 103.362 114.296 102.218 114.332 101.016C114.367 99.8132 113.942 98.6424 113.144 97.7419L104.124 88.7012Z" fill="url(#paint14_linear_2895_2872)"/>
<g id="Ellipse 61" filter="url(#filter3_f_2895_2872)">
<ellipse cx="97.5874" cy="106.123" rx="22.1733" ry="3.27561" fill="#EC5575" fill-opacity="0.56"/>
</g>
<path id="Star 1" d="M71.9646 127.881C72.2775 126.585 74.1207 126.585 74.4336 127.881L75.4864 132.242C75.5982 132.705 75.9598 133.067 76.4229 133.179L80.7844 134.231C82.0803 134.544 82.0803 136.388 80.7844 136.7L76.4229 137.753C75.9598 137.865 75.5982 138.227 75.4864 138.69L74.4336 143.051C74.1207 144.347 72.2775 144.347 71.9646 143.051L70.9118 138.69C70.8 138.227 70.4384 137.865 69.9753 137.753L65.6138 136.7C64.3179 136.388 64.3179 134.544 65.6138 134.231L69.9753 133.179C70.4384 133.067 70.8 132.705 70.9118 132.242L71.9646 127.881Z" fill="url(#paint15_linear_2895_2872)"/>
<path id="Star 2" d="M21.7967 11.8319C22.1095 10.536 23.9528 10.536 24.2656 11.8319L25.3184 16.1934C25.4302 16.6565 25.7918 17.018 26.2549 17.1298L30.6164 18.1827C31.9123 18.4955 31.9123 20.3387 30.6164 20.6516L26.2549 21.7044C25.7918 21.8162 25.4302 22.1778 25.3184 22.6409L24.2656 27.0024C23.9528 28.2983 22.1095 28.2983 21.7967 27.0024L20.7438 22.6409C20.632 22.1778 20.2705 21.8162 19.8074 21.7044L15.4459 20.6516C14.15 20.3388 14.15 18.4955 15.4459 18.1827L19.8074 17.1298C20.2705 17.018 20.632 16.6565 20.7438 16.1934L21.7967 11.8319Z" fill="url(#paint16_linear_2895_2872)"/>
<path id="Ellipse 59 (Stroke)" fill-rule="evenodd" clip-rule="evenodd" d="M75.0828 12.5384C76.2517 12.5384 77.1993 11.5908 77.1993 10.4219C77.1993 9.253 76.2517 8.30541 75.0828 8.30541C73.9139 8.30541 72.9663 9.253 72.9663 10.4219C72.9663 11.5908 73.9139 12.5384 75.0828 12.5384ZM75.0828 14.1258C77.1284 14.1258 78.7867 12.4675 78.7867 10.4219C78.7867 8.37631 77.1284 6.71802 75.0828 6.71802C73.0372 6.71802 71.3789 8.37631 71.3789 10.4219C71.3789 12.4675 73.0372 14.1258 75.0828 14.1258Z" fill="url(#paint17_linear_2895_2872)"/>
<path id="Polygon 2" d="M140.896 70.8189C140.695 70.0295 141.423 69.3182 142.208 69.5386L147.501 71.0263C148.286 71.2467 148.537 72.2334 147.954 72.8024L144.019 76.6432C143.436 77.2122 142.456 76.9367 142.254 76.1473L140.896 70.8189Z" fill="url(#paint18_linear_2895_2872)"/>
<path id="Polygon 3" d="M16.8048 61.7315C17.5944 61.5313 18.3047 62.261 18.0833 63.0449L16.5888 68.3368C16.3674 69.1208 15.3804 69.3711 14.8121 68.7874L10.9765 64.8472C10.4082 64.2634 10.685 63.2835 11.4746 63.0832L16.8048 61.7315Z" fill="url(#paint19_linear_2895_2872)"/>
<path id="Polygon 4" d="M117.746 134.866C118.536 134.666 119.246 135.396 119.025 136.18L117.53 141.472C117.309 142.256 116.322 142.506 115.754 141.922L111.918 137.982C111.35 137.398 111.626 136.418 112.416 136.218L117.746 134.866Z" fill="url(#paint20_linear_2895_2872)"/>
<path id="Ellipse 60 (Stroke)" fill-rule="evenodd" clip-rule="evenodd" d="M145.798 43.3639C146.967 43.3639 147.914 42.4163 147.914 41.2474C147.914 40.0784 146.967 39.1308 145.798 39.1308C144.629 39.1308 143.681 40.0784 143.681 41.2474C143.681 42.4163 144.629 43.3639 145.798 43.3639ZM145.798 44.9513C147.843 44.9513 149.502 43.293 149.502 41.2474C149.502 39.2018 147.843 37.5435 145.798 37.5435C143.752 37.5435 142.094 39.2018 142.094 41.2474C142.094 43.293 143.752 44.9513 145.798 44.9513Z" fill="url(#paint21_linear_2895_2872)"/>
<path id="Vector_19" d="M140.598 137.627L149.519 127.792L150.863 129.01C152.167 130.193 152.947 131.845 153.033 133.603C153.118 135.361 152.502 137.081 151.32 138.385C150.137 139.689 148.485 140.47 146.727 140.555C144.969 140.641 143.249 140.025 141.945 138.842L140.601 137.623L140.598 137.627Z" fill="#65C8DE"/>
</g>
<defs>
<filter id="filter0_d_2895_2872" x="0.661018" y="74.4132" width="60.574" height="74.6897" filterUnits="userSpaceOnUse" color-interpolation-filters="sRGB">
<feFlood flood-opacity="0" result="BackgroundImageFix"/>
<feColorMatrix in="SourceAlpha" type="matrix" values="0 0 0 0 0 0 0 0 0 0 0 0 0 0 0 0 0 0 127 0" result="hardAlpha"/>
<feOffset dx="1.81326" dy="4.23094"/>
<feGaussianBlur stdDeviation="4.53315"/>
<feComposite in2="hardAlpha" operator="out"/>
<feColorMatrix type="matrix" values="0 0 0 0 0.104618 0 0 0 0 0.465612 0 0 0 0 0.545833 0 0 0 0.15 0"/>
<feBlend mode="normal" in2="BackgroundImageFix" result="effect1_dropShadow_2895_2872"/>
<feBlend mode="normal" in="SourceGraphic" in2="effect1_dropShadow_2895_2872" result="shape"/>
</filter>
<filter id="filter1_d_2895_2872" x="95.5542" y="0.40592" width="58.1563" height="38.9112" filterUnits="userSpaceOnUse" color-interpolation-filters="sRGB">
<feFlood flood-opacity="0" result="BackgroundImageFix"/>
<feColorMatrix in="SourceAlpha" type="matrix" values="0 0 0 0 0 0 0 0 0 0 0 0 0 0 0 0 0 0 127 0" result="hardAlpha"/>
<feOffset dx="3.62652" dy="2.41768"/>
<feGaussianBlur stdDeviation="3.92873"/>
<feComposite in2="hardAlpha" operator="out"/>
<feColorMatrix type="matrix" values="0 0 0 0 0.104618 0 0 0 0 0.465612 0 0 0 0 0.545833 0 0 0 0.09 0"/>
<feBlend mode="normal" in2="BackgroundImageFix" result="effect1_dropShadow_2895_2872"/>
<feBlend mode="normal" in="SourceGraphic" in2="effect1_dropShadow_2895_2872" result="shape"/>
</filter>
<filter id="filter2_b_2895_2872" x="54.9251" y="47.0814" width="83.2396" height="83.2408" filterUnits="userSpaceOnUse" color-interpolation-filters="sRGB">
<feFlood flood-opacity="0" result="BackgroundImageFix"/>
<feGaussianBlur in="BackgroundImageFix" stdDeviation="5.0394"/>
<feComposite in2="SourceAlpha" operator="in" result="effect1_backgroundBlur_2895_2872"/>
<feBlend mode="normal" in="SourceGraphic" in2="effect1_backgroundBlur_2895_2872" result="shape"/>
</filter>
<filter id="filter3_f_2895_2872" x="62.8156" y="90.2489" width="69.5446" height="31.7483" filterUnits="userSpaceOnUse" color-interpolation-filters="sRGB">
<feFlood flood-opacity="0" result="BackgroundImageFix"/>
<feBlend mode="normal" in="SourceGraphic" in2="BackgroundImageFix" result="shape"/>
<feGaussianBlur stdDeviation="6.29925" result="effect1_foregroundBlur_2895_2872"/>
</filter>
<linearGradient id="paint0_linear_2895_2872" x1="77.3127" y1="-12.2301" x2="78.7329" y2="231.238" gradientUnits="userSpaceOnUse">
<stop stop-color="white" stop-opacity="0"/>
<stop offset="1" stop-color="#8EE2F4"/>
</linearGradient>
<linearGradient id="paint1_linear_2895_2872" x1="29.6707" y1="28.4772" x2="123.96" y2="35.1258" gradientUnits="userSpaceOnUse">
<stop stop-color="#F0DCCA"/>
<stop offset="0.53646" stop-color="#A2F5D0"/>
<stop offset="1" stop-color="#65C8DE"/>
</linearGradient>
<linearGradient id="paint2_linear_2895_2872" x1="26.9508" y1="97.6836" x2="162.945" y2="100.101" gradientUnits="userSpaceOnUse">
<stop stop-color="white"/>
<stop offset="1" stop-color="#BCF3FF"/>
</linearGradient>
<linearGradient id="paint3_linear_2895_2872" x1="40.8558" y1="48.4232" x2="113.991" y2="48.4232" gradientUnits="userSpaceOnUse">
<stop stop-color="#65C8DE"/>
<stop offset="1" stop-color="#D2F7FF"/>
</linearGradient>
<linearGradient id="paint4_linear_2895_2872" x1="40.8558" y1="68.1849" x2="113.991" y2="68.1849" gradientUnits="userSpaceOnUse">
<stop stop-color="#65C8DE"/>
<stop offset="1" stop-color="#D2F7FF"/>
</linearGradient>
<linearGradient id="paint5_linear_2895_2872" x1="40.8558" y1="87.9466" x2="113.991" y2="87.9466" gradientUnits="userSpaceOnUse">
<stop stop-color="#65C8DE"/>
<stop offset="1" stop-color="#D2F7FF"/>
</linearGradient>
<linearGradient id="paint6_linear_2895_2872" x1="40.8558" y1="107.709" x2="113.991" y2="107.709" gradientUnits="userSpaceOnUse">
<stop stop-color="#65C8DE"/>
<stop offset="1" stop-color="#D2F7FF"/>
</linearGradient>
<linearGradient id="paint7_linear_2895_2872" x1="6.63972" y1="121.659" x2="87.9866" y2="128.341" gradientUnits="userSpaceOnUse">
<stop stop-color="white"/>
<stop offset="1" stop-color="#BCF3FF"/>
</linearGradient>
<linearGradient id="paint8_linear_2895_2872" x1="98.5108" y1="23.2401" x2="159.793" y2="25.0128" gradientUnits="userSpaceOnUse">
<stop stop-color="white"/>
<stop offset="1" stop-color="#BCF3FF"/>
</linearGradient>
<linearGradient id="paint9_linear_2895_2872" x1="46.788" y1="105.969" x2="12.336" y2="105.969" gradientUnits="userSpaceOnUse">
<stop stop-color="#D2F7FF"/>
<stop offset="1" stop-color="#65C8DE"/>
</linearGradient>
<linearGradient id="paint10_linear_2895_2872" x1="46.7592" y1="127.819" x2="12.6034" y2="127.819" gradientUnits="userSpaceOnUse">
<stop stop-color="#D2F7FF"/>
<stop offset="1" stop-color="#65C8DE"/>
</linearGradient>
<linearGradient id="paint11_linear_2895_2872" x1="46.7592" y1="116.335" x2="12.6034" y2="116.335" gradientUnits="userSpaceOnUse">
<stop stop-color="#D2F7FF"/>
<stop offset="1" stop-color="#65C8DE"/>
</linearGradient>
<linearGradient id="paint12_linear_2895_2872" x1="3.07741" y1="87.4429" x2="27.0969" y2="83.8398" gradientUnits="userSpaceOnUse">
<stop stop-color="#F0DCCA"/>
<stop offset="0.53646" stop-color="#A2F5D0"/>
<stop offset="1" stop-color="#65C8DE"/>
</linearGradient>
<linearGradient id="paint13_linear_2895_2872" x1="96.5455" y1="57.1602" x2="128.329" y2="139.635" gradientUnits="userSpaceOnUse">
<stop stop-color="white"/>
<stop offset="1" stop-color="#D2F7FF"/>
</linearGradient>
<linearGradient id="paint14_linear_2895_2872" x1="80.4018" y1="73.8127" x2="114.652" y2="105.812" gradientUnits="userSpaceOnUse">
<stop stop-color="#FF698D"/>
<stop offset="1" stop-color="#FF3868"/>
</linearGradient>
<linearGradient id="paint15_linear_2895_2872" x1="60.4712" y1="128.628" x2="86.0363" y2="128.794" gradientUnits="userSpaceOnUse">
<stop stop-color="#90E3F5"/>
<stop offset="1" stop-color="#65C8DE"/>
</linearGradient>
<linearGradient id="paint16_linear_2895_2872" x1="10.3033" y1="12.5796" x2="35.8683" y2="12.7455" gradientUnits="userSpaceOnUse">
<stop stop-color="#90E3F5"/>
<stop offset="1" stop-color="#65C8DE"/>
</linearGradient>
<linearGradient id="paint17_linear_2895_2872" x1="71.3705" y1="8.42764" x2="78.827" y2="8.47605" gradientUnits="userSpaceOnUse">
<stop stop-color="#90E3F5"/>
<stop offset="1" stop-color="#65C8DE"/>
</linearGradient>
<linearGradient id="paint18_linear_2895_2872" x1="138.354" y1="74.4947" x2="146.025" y2="67.1041" gradientUnits="userSpaceOnUse">
<stop stop-color="#90E3F5"/>
<stop offset="1" stop-color="#65C8DE"/>
</linearGradient>
<linearGradient id="paint19_linear_2895_2872" x1="13.1322" y1="59.1845" x2="20.5129" y2="66.8655" gradientUnits="userSpaceOnUse">
<stop stop-color="#90E3F5"/>
<stop offset="1" stop-color="#65C8DE"/>
</linearGradient>
<linearGradient id="paint20_linear_2895_2872" x1="114.074" y1="132.319" x2="121.454" y2="140" gradientUnits="userSpaceOnUse">
<stop stop-color="#90E3F5"/>
<stop offset="1" stop-color="#65C8DE"/>
</linearGradient>
<linearGradient id="paint21_linear_2895_2872" x1="142.085" y1="39.2531" x2="149.542" y2="39.3015" gradientUnits="userSpaceOnUse">
<stop stop-color="#90E3F5"/>
<stop offset="1" stop-color="#65C8DE"/>
</linearGradient>
</defs>
</svg>
